<?xml version="1.0" standalone="no"?>
<!DOCTYPE svg PUBLIC "-//W3C//DTD SVG 20010904//EN"
 "http://www.w3.org/TR/2001/REC-SVG-20010904/DTD/svg10.dtd">
<svg version="1.0" xmlns="http://www.w3.org/2000/svg"
 width="200.000000pt" height="200.000000pt" viewBox="0 0 200.000000 200.000000"
 preserveAspectRatio="xMidYMid meet">

<g transform="translate(0.000000,200.000000) scale(0.100000,-0.100000)"
fill="#000000" stroke="none">
<path d="M875 1835 c-5 -2 -44 -11 -84 -20 -208 -48 -404 -186 -526 -370 -30
-45 -55 -85 -55 -88 0 -4 -11 -30 -24 -59 -46 -104 -61 -182 -61 -338 0 -121
4 -158 23 -225 89 -314 325 -546 638 -630 101 -27 273 -30 386 -7 180 37 320
113 448 241 350 352 345 917 -11 1257 -128 121 -263 191 -442 229 -59 13 -262
20 -292 10z m293 -51 c164 -34 310 -113 427 -233 154 -157 230 -332 242 -551
13 -237 -71 -455 -241 -626 -122 -121 -220 -180 -384 -226 -63 -18 -102 -22
-217 -22 -122 1 -151 4 -228 27 -157 48 -267 116 -379 235 -160 170 -240 394
-225 631 24 370 296 686 659 765 87 19 253 19 346 0z"/>
<path d="M877 1699 c-253 -37 -487 -230 -576 -475 -77 -211 -63 -416 42 -619
56 -110 189 -243 302 -302 222 -116 488 -117 705 -2 81 43 180 122 168 135 -4
4 -35 -14 -67 -40 -310 -243 -757 -198 -1006 102 -246 297 -216 739 68 999 70
63 178 126 261 152 49 15 189 41 222 41 2 0 4 5 4 10 0 11 -40 11 -123 -1z"/>
<path d="M1062 1628 c2 -6 31 -17 64 -24 32 -7 72 -17 88 -23 20 -8 33 -8 39
-2 12 12 -20 26 -108 47 -73 17 -88 17 -83 2z"/>
<path d="M824 1546 c-38 -12 -95 -36 -124 -52 -67 -36 -187 -152 -225 -218
-97 -167 -111 -372 -39 -551 81 -200 285 -351 502 -372 42 -4 62 -2 62 5 0 10
-12 13 -107 28 -105 15 -237 88 -321 178 -212 227 -209 583 6 801 72 73 136
115 232 150 65 24 90 28 185 28 95 1 121 -3 189 -26 265 -92 430 -351 397
-621 -14 -119 -62 -231 -133 -312 -21 -24 -28 -38 -21 -45 7 -7 25 9 57 50
146 189 166 451 53 666 -72 135 -239 265 -388 300 -97 23 -239 19 -325 -9z"/>
<path d="M935 1501 c-58 -12 -31 -26 45 -22 81 3 93 7 70 21 -17 11 -69 11
-115 1z"/>
<path d="M1390 1502 c0 -13 139 -146 146 -139 9 9 -49 80 -95 117 -40 31 -51
36 -51 22z"/>
<path d="M1160 1468 c1 -11 111 -68 133 -68 22 0 1 23 -40 44 -68 33 -93 40
-93 24z"/>
<path d="M740 1439 c-66 -36 -74 -44 -65 -59 5 -8 11 -7 23 3 10 8 36 24 60
36 23 12 42 28 42 36 0 19 5 20 -60 -16z"/>
<path d="M335 1400 c-3 -5 -1 -10 4 -10 6 0 11 5 11 10 0 6 -2 10 -4 10 -3 0
-8 -4 -11 -10z"/>
<path d="M1377 1334 c-3 -3 12 -29 34 -57 21 -29 39 -55 39 -59 0 -5 7 -8 16
-8 21 0 14 17 -33 80 -37 50 -44 55 -56 44z"/>
<path d="M550 1268 c-30 -41 -47 -84 -37 -94 5 -6 87 113 87 127 0 21 -22 6
-50 -33z"/>
<path d="M1607 1224 c-3 -3 1 -20 8 -37 7 -18 19 -60 25 -94 13 -64 30 -85 30
-37 0 33 -37 161 -49 168 -4 3 -11 3 -14 0z"/>
<path d="M1504 1089 c10 -74 17 -99 27 -99 21 0 1 132 -23 146 -8 5 -9 -8 -4
-47z"/>
<path d="M692 1057 l-32 -33 0 -110 0 -110 34 -33 c32 -31 36 -32 102 -29 l69
3 3 33 3 32 -50 0 -51 0 0 140 c0 139 0 140 -23 140 -13 0 -37 -14 -55 -33z"/>
<path d="M792 1058 c3 -31 6 -33 46 -36 28 -2 42 -8 42 -18 0 -10 14 -14 55
-14 46 0 55 3 55 18 0 10 -15 32 -33 50 -30 30 -38 32 -101 32 l-67 0 3 -32z"/>
<path d="M1050 914 l0 -175 53 3 52 3 3 173 2 172 -55 0 -55 0 0 -176z"/>
<path d="M1183 1058 c3 -31 6 -33 43 -33 l39 0 3 -62 3 -63 -46 0 c-46 0 -46
0 -43 -32 l3 -33 60 -1 c56 -2 62 1 98 34 34 33 37 40 37 92 0 49 -4 62 -31
93 -31 36 -33 37 -101 37 l-69 0 4 -32z"/>
<path d="M466 1069 c-14 -43 -15 -116 -3 -134 13 -16 15 -10 20 56 5 67 -5
114 -17 78z"/>
<path d="M835 900 c0 -26 4 -30 28 -30 27 0 27 -1 27 -66 l0 -65 48 3 47 3 3
93 3 92 -78 0 -78 0 0 -30z"/>
<path d="M1781 884 c0 -11 3 -14 6 -6 3 7 2 16 -1 19 -3 4 -6 -2 -5 -13z"/>
<path d="M480 805 c0 -24 48 -125 59 -125 16 0 14 8 -15 78 -26 59 -44 79 -44
47z"/>
<path d="M1549 608 c-13 -18 -40 -55 -62 -81 -22 -26 -36 -51 -32 -55 8 -8 92
83 119 129 24 40 2 46 -25 7z"/>
<path d="M490 521 c0 -11 100 -105 129 -120 35 -19 40 -2 6 22 -17 12 -51 41
-76 64 -46 43 -59 50 -59 34z"/>
<path d="M1635 500 c-3 -5 -1 -10 4 -10 6 0 11 5 11 10 0 6 -2 10 -4 10 -3 0
-8 -4 -11 -10z"/>
<path d="M1540 389 c0 -5 5 -7 10 -4 6 3 10 8 10 11 0 2 -4 4 -10 4 -5 0 -10
-5 -10 -11z"/>
<path d="M1290 376 c-14 -8 -50 -22 -80 -31 -56 -18 -78 -31 -69 -40 15 -14
189 55 189 75 0 13 -10 12 -40 -4z"/>
<path d="M515 330 c3 -5 8 -10 11 -10 2 0 4 5 4 10 0 6 -5 10 -11 10 -5 0 -7
-4 -4 -10z"/>
<path d="M790 327 c0 -11 25 -19 88 -31 106 -19 102 -19 102 -1 0 10 -10 15
-32 15 -30 0 -96 13 -140 26 -12 3 -18 0 -18 -9z"/>
<path d="M1430 299 c0 -5 5 -7 10 -4 6 3 10 8 10 11 0 2 -4 4 -10 4 -5 0 -10
-5 -10 -11z"/>
<path d="M630 260 c0 -5 5 -10 11 -10 5 0 7 5 4 10 -3 6 -8 10 -11 10 -2 0 -4
-4 -4 -10z"/>
<path d="M291 1574 c-95 -108 -167 -247 -203 -391 -28 -113 -30 -322 -5 -427
44 -175 125 -322 247 -445 98 -98 149 -136 258 -190 145 -72 250 -95 422 -94
101 0 144 5 222 26 111 29 247 96 340 166 201 152 339 404 363 664 5 50 4 77
-3 77 -15 0 -22 -26 -22 -80 0 -59 -41 -224 -74 -295 -96 -211 -284 -389 -499
-474 -129 -51 -211 -64 -375 -59 -131 5 -157 9 -242 37 -253 85 -445 256 -556
497 -55 117 -77 228 -77 379 0 110 4 145 26 228 40 146 113 283 199 373 22 23
35 44 30 48 -6 3 -29 -15 -51 -40z"/>
</g>
</svg>
